# xmcd
#
# Track frame offsets: 
#        180
#        21180
#        40465
#        59895
#        76078
#        93333
#        110530
#        127760
#        145850
#        167735
#        187608
#        206373
#        222793
#        242020
#        255925
#
# Disc length: 3577 seconds
#
# Revision: 0
# Processed by: cddbd v1.5.1PL0 Copyright (c) Steve Scherf et al.
# Submitted via: ExactAudioCopy v0.95a3
#
DISCID=c10df70f
DTITLE=Various Artist - 50х50. Выпуск 1 "Юбилейный"
DYEAR=1994
DGENRE=Pop
TTITLE0=На-На - Где Ты Была
TTITLE1=Анжелика Варум - Городок
TTITLE2=Виктор Чайка - Прощай, Ты Больше Не Моя
TTITLE3=Лена Анистратенко - Пленник
TTITLE4=Леонид Агутин - Голос Высокой Травы
TTITLE5=Роксана Бабаян - Чары Колдовские
TTITLE6=Кар-Мэн - This Is Car-Man
TTITLE7=Татьяна И Алёна Зайцевы - Заливные Луга
TTITLE8=Миша Веселов - Люблю
TTITLE9=Наташа Королёва - Лунная Ночь
TTITLE10=Арамис - Девочка Ждёт
TTITLE11=Игорь Николаев - Раскаты Грома
TTITLE12=Оля Прядина - Канарейка В Клетке
TTITLE13=Вика Борщенко - Осень
TTITLE14=Александр Кальянов - У Опера С Петровки
EXTD=
EXTT0=
EXTT1=
EXTT2=
EXTT3=
EXTT4=
EXTT5=
EXTT6=
EXTT7=
EXTT8=
EXTT9=
EXTT10=
EXTT11=
EXTT12=
EXTT13=
EXTT14=
PLAYORDER=
